<svg xmlns="http://www.w3.org/2000/svg" version="1.0" width="100.000000pt" height="100.000000pt" viewBox="0 0 100.000000 100.000000" preserveAspectRatio="xMidYMid meet">
<metadata fill="#e91e63">
Created by potrace 1.10, written by Peter Selinger 2001-2011
</metadata>
<g transform="translate(0.000000,100.000000) scale(0.100000,-0.100000)" fill="#0096ff" stroke="none">
<path d="M189 801 l-29 -29 0 -267 0 -267 29 -29 29 -29 237 0 c207 0 236 2 231 15 -8 23 -1 19 66 -35 34 -28 66 -50 70 -50 4 0 8 149 8 331 l0 331 -29 29 -29 29 -277 0 -277 0 -29 -29z m596 -16 l25 -24 0 -311 0 -311 -69 56 c-83 65 -106 72 -81 24 10 -19 5 -19 -210 -19 l-221 0 -24 25 -25 24 0 256 0 256 25 24 24 25 266 0 266 0 24 -25z" fill="#e91e63"/>
<path d="M227 762 c-15 -16 -17 -49 -17 -259 0 -220 2 -241 18 -256 10 -10 24 -17 32 -17 7 0 1 9 -14 21 l-26 20 0 233 c0 212 2 234 18 249 16 14 53 17 258 20 l239 2 -246 3 c-227 2 -247 1 -262 -16z" fill="#e91e63"/>
<path d="M772 660 c0 -19 2 -27 5 -17 2 9 2 25 0 35 -3 9 -5 1 -5 -18z" fill="#e91e63"/>
<path d="M370 652 c-43 -21 -77 -86 -93 -176 -10 -59 -9 -67 9 -87 40 -45 132 -65 140 -31 4 14 17 17 70 17 52 0 65 -3 70 -17 10 -33 99 -14 138 30 15 18 17 30 12 73 -10 73 -43 155 -73 179 -31 24 -95 38 -101 21 -5 -14 -92 -15 -92 -1 0 16 -41 12 -80 -8z m28 -18 c-27 -13 -48 -26 -48 -28 0 -1 24 5 53 15 28 10 70 18 92 18 22 0 64 -8 93 -18 28 -10 52 -16 52 -15 0 2 -21 15 -47 29 -39 21 -43 25 -18 20 69 -14 97 -53 121 -167 14 -64 13 -72 -2 -89 -24 -27 -102 -55 -116 -41 -7 7 -2 15 19 25 16 9 35 22 42 31 9 10 2 9 -26 -5 -52 -27 -184 -27 -236 0 -28 14 -35 15 -26 5 7 -9 26 -22 42 -31 21 -10 26 -18 19 -25 -14 -14 -92 14 -116 41 -15 17 -16 24 -2 91 9 40 24 86 34 104 17 31 73 66 102 66 8 -1 -6 -12 -32 -26z" fill="#e91e63"/>
<path d="M401 526 c-17 -20 -10 -67 12 -80 24 -15 51 4 55 38 6 48 -39 75 -67 42z m47 -8 c16 -16 15 -30 -2 -53 -12 -16 -16 -17 -30 -6 -9 7 -16 21 -16 30 0 17 18 41 30 41 3 0 11 -5 18 -12z" fill="#e91e63"/>
<path d="M531 526 c-17 -20 -10 -67 12 -80 24 -15 51 4 55 38 6 48 -39 75 -67 42z m47 -8 c16 -16 15 -30 -2 -53 -12 -16 -16 -17 -30 -6 -9 7 -16 21 -16 30 0 17 18 41 30 41 3 0 11 -5 18 -12z" fill="#e91e63"/>
<path d="M772 580 c0 -19 2 -27 5 -17 2 9 2 25 0 35 -3 9 -5 1 -5 -18z" fill="#e91e63"/>
<path d="M772 398 c-1 -71 -6 -130 -12 -133 -5 -3 -10 -11 -10 -18 0 -7 6 -5 15 4 13 13 15 39 12 145 l-3 129 -2 -127z" fill="#e91e63"/>
<path d="M313 233 c15 -2 37 -2 50 0 12 2 0 4 -28 4 -27 0 -38 -2 -22 -4z" fill="#e91e63"/>
<path d="M463 233 c32 -2 81 -2 110 0 29 2 3 3 -58 3 -60 0 -84 -1 -52 -3z" fill="#e91e63"/>
</g>
</svg>