<svg xmlns="http://www.w3.org/2000/svg" version="1.0" width="50.000000pt" height="50.000000pt" viewBox="0 0 50.000000 50.000000" preserveAspectRatio="xMidYMid meet">
<metadata fill="#e91e63">
Created by potrace 1.10, written by Peter Selinger 2001-2011
</metadata>
<g transform="translate(0.000000,50.000000) scale(0.100000,-0.100000)" fill="#0096ff" stroke="none">
<path d="M70 310 c0 -73 4 -120 10 -120 6 0 10 41 10 104 l0 105 160 -2 160 -1 0 -103 c0 -62 4 -103 10 -103 6 0 10 47 10 120 l0 120 -180 0 -180 0 0 -120z m267 103 c-48 -2 -126 -2 -175 0 -48 1 -8 3 88 3 96 0 136 -2 87 -3z" fill="#e91e63"/>
<path d="M104 367 c-3 -8 -4 -34 -2 -58 2 -35 7 -45 23 -48 11 -2 23 -8 28 -15 5 -8 9 -8 15 0 4 7 16 13 27 15 17 4 20 12 20 59 l0 55 -53 3 c-38 2 -54 -1 -58 -11z m96 -46 c0 -52 -15 -66 -60 -54 -17 4 -20 14 -20 54 l0 49 40 0 40 0 0 -49z" fill="#e91e63"/>
<path d="M147 354 c-13 -14 -7 -23 11 -17 15 6 16 5 2 -12 -13 -16 -13 -18 0 -13 8 2 15 13 15 23 0 19 -16 30 -28 19z" fill="#e91e63"/>
<path d="M230 330 c0 -6 33 -10 80 -10 47 0 80 4 80 10 0 6 -33 10 -80 10 -47 0 -80 -4 -80 -10z" fill="#e91e63"/>
<path d="M267 283 c24 -2 62 -2 86 0 23 2 4 4 -43 4 -47 0 -66 -2 -43 -4z" fill="#e91e63"/>
<path d="M230 260 c0 -5 16 -10 35 -10 19 0 35 5 35 10 0 6 -16 10 -35 10 -19 0 -35 -4 -35 -10z" fill="#e91e63"/>
<path d="M110 220 c0 -20 -3 -25 -21 -38 -11 -8 -19 -24 -18 -40 1 -21 2 -23 6 -7 3 11 10 26 15 33 15 17 55 15 62 -4 5 -13 2 -15 -13 -11 -20 5 -49 -18 -37 -30 3 -3 -3 -12 -14 -20 -11 -8 -20 -19 -20 -25 0 -6 8 -4 18 5 23 21 56 22 76 1 15 -14 17 -14 32 0 19 20 48 20 67 1 13 -13 16 -13 27 0 16 20 49 19 72 -2 10 -9 18 -11 18 -6 0 6 -7 16 -15 23 -23 19 -18 40 9 40 26 0 41 -14 49 -45 3 -14 5 -10 6 11 1 20 -5 34 -14 38 -8 3 -15 15 -15 26 0 15 -7 20 -25 20 -18 0 -25 5 -25 20 0 14 -7 20 -21 20 -12 0 -23 -8 -26 -20 -3 -13 -14 -20 -29 -20 -13 0 -23 3 -23 8 4 24 -3 33 -23 30 -15 -2 -22 -9 -22 -21 1 -12 -6 -17 -27 -17 -16 0 -28 3 -28 8 4 22 -3 32 -21 32 -11 0 -20 -4 -20 -10z m30 -15 c0 -8 -4 -15 -10 -15 -5 0 -10 7 -10 15 0 8 5 15 10 15 6 0 10 -7 10 -15z m100 0 c0 -8 -4 -15 -10 -15 -5 0 -10 7 -10 15 0 8 5 15 10 15 6 0 10 -7 10 -15z m100 0 c0 -8 -4 -15 -9 -15 -13 0 -22 16 -14 24 11 11 23 6 23 -9z m-150 -40 c0 -8 -4 -15 -10 -15 -5 0 -10 7 -10 15 0 8 5 15 10 15 6 0 10 -7 10 -15z m60 1 c0 -8 -10 -13 -25 -13 -25 0 -31 7 -18 20 12 12 43 7 43 -7z m40 -1 c0 -8 -4 -15 -9 -15 -13 0 -22 16 -14 24 11 11 23 6 23 -9z m60 1 c0 -8 -10 -13 -25 -13 -25 0 -31 7 -18 20 12 12 43 7 43 -7z m40 6 c0 -13 -12 -22 -22 -16 -10 6 -1 24 13 24 5 0 9 -4 9 -8z m-250 -47 c0 -8 -4 -15 -10 -15 -5 0 -10 7 -10 15 0 8 5 15 10 15 6 0 10 -7 10 -15z m60 1 c0 -8 -5 -18 -10 -21 -17 -11 -40 3 -34 20 8 19 44 20 44 1z m40 -1 c0 -8 -4 -15 -9 -15 -13 0 -22 16 -14 24 11 11 23 6 23 -9z m58 -2 c-2 -10 -12 -18 -23 -18 -11 0 -21 8 -23 18 -3 13 3 17 23 17 20 0 26 -4 23 -17z m40 6 c-2 -6 -8 -10 -13 -10 -5 0 -11 4 -13 10 -2 6 4 11 13 11 9 0 15 -5 13 -11z" fill="#e91e63"/>
</g>
</svg>