<svg xmlns="http://www.w3.org/2000/svg" version="1.0" width="100.000000pt" height="100.000000pt" viewBox="0 0 100.000000 100.000000" preserveAspectRatio="xMidYMid meet">
<metadata fill="#e91e63">
Created by potrace 1.10, written by Peter Selinger 2001-2011
</metadata>
<g transform="translate(0.000000,100.000000) scale(0.100000,-0.100000)" fill="#69D2E7" stroke="none">
<path d="M352 825 c-52 -24 -52 -24 -46 -62 8 -52 -19 -78 -71 -70 -36 6 -37 5 -61 -46 -25 -55 -31 -87 -14 -87 19 0 50 -40 50 -65 0 -16 -11 -32 -30 -47 -16 -12 -30 -27 -30 -32 0 -6 11 -35 25 -64 24 -52 24 -52 62 -46 52 8 78 -19 70 -71 -6 -36 -5 -37 46 -61 55 -25 87 -31 87 -14 0 16 43 50 62 50 11 0 32 -14 47 -31 31 -34 42 -34 113 2 34 17 36 21 31 54 -8 51 19 79 70 72 38 -5 39 -5 63 46 30 65 30 73 -1 93 -45 29 -42 94 5 109 26 8 25 29 -4 92 -24 51 -25 52 -61 46 -51 -8 -79 18 -72 70 5 35 3 39 -31 56 -71 36 -82 36 -113 2 -37 -40 -71 -41 -101 -1 -12 17 -27 30 -32 30 -6 0 -35 -11 -64 -25z m88 -25 c38 -41 82 -41 121 1 l28 30 44 -19 c41 -18 43 -21 39 -56 -6 -54 28 -88 82 -84 38 2 41 0 58 -37 22 -51 22 -62 0 -70 -21 -6 -42 -45 -42 -76 0 -12 14 -34 31 -50 l30 -28 -19 -44 c-18 -41 -21 -43 -55 -39 -51 6 -91 -34 -85 -85 4 -34 2 -37 -40 -56 -45 -19 -45 -19 -61 1 -19 23 -53 42 -76 42 -9 0 -31 -14 -48 -31 l-31 -31 -45 19 c-44 18 -46 20 -43 56 5 52 -35 92 -84 84 -34 -6 -36 -4 -55 39 l-19 46 30 28 c16 15 30 37 30 49 0 31 -21 70 -42 76 -23 8 -22 13 1 67 18 42 20 44 55 40 54 -6 88 28 84 82 -2 37 0 40 37 57 22 10 42 18 43 18 2 1 17 -12 32 -29z" fill="#e91e63"/>
<path d="M405 696 c-27 -13 -58 -32 -67 -42 -27 -30 -58 -106 -57 -139 1 -28 2 -28 10 8 13 55 45 112 76 137 l28 22 5 -29 c4 -20 -1 -37 -18 -60 -28 -38 -39 -100 -24 -141 9 -26 7 -29 -18 -39 -25 -9 -29 -8 -34 10 -3 12 -8 18 -12 15 -3 -4 4 -26 17 -49 33 -59 102 -101 172 -105 28 -1 39 0 22 2 -55 9 -57 11 -39 39 10 16 26 25 41 25 62 0 127 55 139 120 5 22 11 29 21 26 8 -4 21 -6 30 -6 9 0 13 -6 10 -15 -4 -8 -1 -17 5 -21 7 -5 9 12 6 54 -4 63 -47 150 -78 160 -8 3 -2 -10 14 -29 l29 -34 -29 -5 c-21 -4 -38 1 -60 17 -17 13 -45 26 -63 29 -22 5 -30 11 -27 21 4 8 6 22 6 30 0 11 7 14 25 9 14 -4 25 -2 25 4 0 20 -103 11 -155 -14z m91 -2 c-3 -9 -6 -22 -6 -30 0 -8 -7 -14 -15 -14 -10 0 -15 10 -15 30 0 24 4 30 21 30 15 0 19 -4 15 -16z m-46 -23 c0 -38 -26 -48 -35 -14 -4 17 -1 29 7 34 22 14 28 10 28 -20z m129 -58 c85 -63 75 -186 -20 -236 -92 -49 -208 33 -195 137 12 104 133 159 215 99z m111 -27 c0 -2 3 -11 6 -20 5 -12 -1 -16 -24 -16 -33 0 -52 26 -24 33 24 7 42 8 42 3z m20 -67 c0 -15 -4 -19 -16 -15 -9 3 -22 6 -30 6 -8 0 -14 7 -14 15 0 10 10 15 30 15 24 0 30 -4 30 -21z m-323 -124 c2 -6 -7 -16 -19 -24 -19 -12 -23 -11 -35 5 -12 16 -11 20 4 26 23 9 45 6 50 -7z m36 -22 c9 -8 -22 -43 -39 -43 -22 0 -27 21 -8 35 21 16 37 19 47 8z m40 -19 c13 -13 -24 -52 -43 -47 -26 7 -25 17 3 36 25 18 31 20 40 11z" fill="#e91e63"/>
<path d="M445 555 c-16 -15 -25 -36 -25 -55 0 -19 9 -40 25 -55 15 -16 36 -25 55 -25 70 0 105 86 55 135 -15 16 -36 25 -55 25 -19 0 -40 -9 -55 -25z m95 -15 c11 -11 20 -29 20 -40 0 -26 -34 -60 -60 -60 -11 0 -29 9 -40 20 -11 11 -20 29 -20 40 0 11 9 29 20 40 11 11 29 20 40 20 11 0 29 -9 40 -20z" fill="#e91e63"/>
<path d="M585 690 c3 -5 10 -10 16 -10 5 0 9 5 9 10 0 6 -7 10 -16 10 -8 0 -12 -4 -9 -10z" fill="#e91e63"/>
<path d="M691 422 c-13 -25 -14 -32 -2 -32 9 0 23 41 16 48 -2 2 -8 -5 -14 -16z" fill="#e91e63"/>
<path d="M649 354 c-7 -8 -33 -26 -58 -39 -25 -13 -39 -24 -30 -25 20 0 109 56 109 70 0 14 -5 13 -21 -6z" fill="#e91e63"/>
</g>
</svg>